<svg xmlns="http://www.w3.org/2000/svg" width="56" height="48" viewBox="0 0 56 48"><g><g><g><path fill="#f8f9fd" d="M56 24c0 13.255-10.745 24-24 24S8 37.255 8 24 18.745 0 32 0s24 10.745 24 24z"/></g><g><g/><g><g><path fill="#ff9027" d="M21.695 22.17l-2.736 4.635a3.802 3.802 0 1 0 1.814 1.078l2.804-4.747a10.164 10.164 0 0 0-1.882-.966z"/></g><g><path fill="#1e3747" d="M34.114 23.625l-2.274 1.313-1.055-1.828 2.27-1.31v-.001a18.178 18.178 0 0 0-5.144-5.144l-1.306 2.261-1.828-1.055 1.308-2.264a17.897 17.897 0 0 0-7.03-1.887v2.756h-2.11V13.71c-2.515.146-4.893.81-7.03 1.887l1.308 2.264-1.828 1.055-1.306-2.262A18.18 18.18 0 0 0 2.945 21.8l2.27 1.311-1.055 1.828-2.273-1.313A17.894 17.894 0 0 0 0 30.655h5.705C6.242 24.343 11.551 19.37 18 19.37s11.758 4.972 12.295 11.284H36a17.897 17.897 0 0 0-1.886-7.03z"/></g></g></g></g></g></svg>