<?xml version="1.0" encoding="utf-8"?><svg viewBox="0 0 329 329" xmlns="http://www.w3.org/2000/svg" xmlns:xlink="http://www.w3.org/1999/xlink"><style>:root>svg{display:none}:root>svg:target{display:block}</style><svg viewBox="0 0 70 60" id="a" xmlns="http://www.w3.org/2000/svg"><path fill="#234051" d="M69.454 60.002L43.329.36H26.324L.2 60.002h17.621l17.129-41.65 17.129 41.65z" opacity=".05"/></svg><svg viewBox="0 0 70 60" id="a-footer" xmlns="http://www.w3.org/2000/svg"><path fill="#fff" d="M69.454 60.002L43.329.36H26.324L.2 60.002h17.621l17.129-41.65 17.129 41.65z" opacity=".05"/></svg><svg viewBox="0 0 56 48" id="advantages" xmlns="http://www.w3.org/2000/svg"><path fill="#f8f9fd" d="M56 24c0 13.255-10.745 24-24 24S8 37.255 8 24 18.745 0 32 0s24 10.745 24 24z"/><path fill="#ff9027" d="M21.695 22.17l-2.736 4.635a3.802 3.802 0 101.814 1.078l2.804-4.747a10.164 10.164 0 00-1.882-.966z"/><path fill="#1e3747" d="M34.114 23.625l-2.274 1.313-1.055-1.828 2.27-1.31v-.001a18.178 18.178 0 00-5.144-5.144l-1.306 2.261-1.828-1.055 1.308-2.264a17.897 17.897 0 00-7.03-1.887v2.756h-2.11V13.71c-2.515.146-4.893.81-7.03 1.887l1.308 2.264-1.828 1.055-1.306-2.262A18.18 18.18 0 002.945 21.8l2.27 1.311-1.055 1.828-2.273-1.313A17.894 17.894 0 000 30.655h5.705C6.242 24.343 11.551 19.37 18 19.37s11.758 4.972 12.295 11.284H36a17.897 17.897 0 00-1.886-7.03z"/></svg><svg fill="none" viewBox="0 0 10 6" id="arrow-header-bottom-select" xmlns="http://www.w3.org/2000/svg"><path opacity=".3" d="M9.488.628L4.744 5.372 0 .63 3.559.628 4.7.672l.044-.044h4.744z" fill="#516C85"/></svg><svg viewBox="0 0 9 6" id="arrow-header-top-select" xmlns="http://www.w3.org/2000/svg"><path d="M0 1.429L4.5 6 9 1.429 7.612 0 4.5 3.257 1.388 0 0 1.429z"/></svg><svg viewBox="0 0 13 13" id="arrow-right" xmlns="http://www.w3.org/2000/svg"><path fill="#fff" d="M7.07.57L13 6.5l-5.93 5.93V7.98H.336V5.018l6.732.001z" opacity=".5"/></svg><svg fill="none" viewBox="0 0 23 26" id="cart" xmlns="http://www.w3.org/2000/svg"><path d="M16.853 11.713V6.694a5.019 5.019 0 00-10.037 0v5.019h10.037zM3.052 9.203h17.564l1.255 15.056H1.797L3.052 9.204z" stroke="#fff" stroke-width="1.882" stroke-linecap="round" stroke-linejoin="round"/></svg><svg viewBox="0 0 329.269 329" id="close" xmlns="http://www.w3.org/2000/svg"><path d="M194.8 164.77L323.013 36.555c8.343-8.34 8.343-21.825 0-30.164-8.34-8.34-21.825-8.34-30.164 0L164.633 134.605 36.422 6.391c-8.344-8.34-21.824-8.34-30.164 0-8.344 8.34-8.344 21.824 0 30.164l128.21 128.215L6.259 292.984c-8.344 8.34-8.344 21.825 0 30.164a21.266 21.266 0 0015.082 6.25c5.46 0 10.922-2.09 15.082-6.25l128.21-128.214 128.216 128.214a21.273 21.273 0 0015.082 6.25c5.46 0 10.922-2.09 15.082-6.25 8.343-8.34 8.343-21.824 0-30.164zm0 0"/></svg><svg fill="none" viewBox="0 0 9 8" id="link-arrow" xmlns="http://www.w3.org/2000/svg"><path opacity=".3" d="M2.242 0H8.95v6.709L6.434 4.193 2.626 8 .95 6.325l3.808-3.808L2.242 0z" fill="#516C85"/></svg><svg fill="none" viewBox="0 0 144 20" id="logo" xmlns="http://www.w3.org/2000/svg"><path d="M0 19.615h5.22V8.626l4.89 7.473h.11l4.917-7.528v11.044h5.303V.385h-5.632L10.22 7.83 5.632.385H0v19.23zM62.505 20c3.488 0 6.318-1.291 8.351-2.967v-6.432h-5.055v4.014c-.797.522-1.785.797-3.077.797-3.05 0-5.22-2.225-5.22-5.33 0-2.994 2.143-5.33 4.918-5.33 1.896 0 3.27.66 4.643 1.814l3.132-3.764C68.164 1.044 65.774 0 62.395 0c-5.962 0-10.358 4.396-10.358 10 0 5.88 4.479 10 10.468 10zM77.932 19.615h5.275V9.065l8.214 10.55h4.67V.385h-5.275V10.55L82.904.385h-4.972v19.23zM112.277 19.973c5.467 0 9.011-2.72 9.011-8.929V.384h-5.412V11.21c0 2.692-1.401 3.956-3.544 3.956s-3.544-1.319-3.544-4.094V.385h-5.412V11.18c0 6.017 3.434 8.792 8.901 8.792zM136.118 19.945c4.67 0 7.775-2.335 7.775-6.264 0-3.653-2.748-5.082-7.171-6.044-2.665-.604-3.324-.989-3.324-1.868 0-.742.632-1.291 1.923-1.291 1.703 0 3.626.66 5.385 1.896l2.665-3.764C141.283.934 138.728.055 135.458.055c-4.615 0-7.445 2.582-7.445 6.154 0 4.01 3.16 5.165 7.253 6.099 2.61.604 3.242 1.044 3.242 1.84 0 .88-.769 1.374-2.198 1.374-2.225 0-4.341-.797-6.236-2.308l-2.967 3.544c2.362 2.116 5.604 3.187 9.011 3.187zM48.09 19.45L39.67.228h-5.48l-8.42 19.224h5.679l5.52-13.425L42.49 19.45h5.6z" fill="#FF9027"/></svg><svg fill="none" viewBox="0 0 23 22" id="phone" xmlns="http://www.w3.org/2000/svg"><path opacity=".2" d="M11.893 0c-6.076 0-11 4.925-11 11s4.924 11 11 11c6.075 0 11-4.925 11-11s-4.925-11-11-11zM7.938 4.37c.227-.014.432.121.587.362l1.504 2.852c.158.338.068.7-.168.941l-.689.69a.337.337 0 00-.07.195c.263 1.023 1.065 1.966 1.772 2.614.707.65 1.466 1.527 2.453 1.735.122.034.271.047.358-.034l.8-.816c.277-.209.677-.31.971-.14h.014l2.714 1.603c.398.25.44.732.154 1.026l-1.869 1.854c-.276.283-.643.378-.999.379-1.576-.048-3.065-.821-4.287-1.616-2.008-1.46-3.85-3.271-5.005-5.46-.443-.917-.964-2.088-.914-3.112.004-.385.108-.763.38-1.011l1.869-1.87a.731.731 0 01.425-.193z" fill="#fff"/></svg><svg fill="none" viewBox="0 0 20 20" id="search" xmlns="http://www.w3.org/2000/svg"><path d="M.327 17.753l4.41-4.41A8.147 8.147 0 013.104 8.44c0-4.516 3.674-8.19 8.19-8.19s8.19 3.674 8.19 8.19-3.674 8.19-8.19 8.19a8.148 8.148 0 01-4.902-1.633l-4.41 4.41a1.172 1.172 0 01-1.655-1.654zM17.144 8.44a5.85 5.85 0 10-5.85 5.85 5.857 5.857 0 005.85-5.85z" fill="#283949"/></svg></svg>